<?xml version="1.0" encoding="utf-8"?>
<!-- Generator: Adobe Illustrator 19.0.0, SVG Export Plug-In . SVG Version: 6.00 Build 0)  -->
<svg version="1.1" id="Layer_1" xmlns="http://www.w3.org/2000/svg" xmlns:xlink="http://www.w3.org/1999/xlink" x="0px" y="0px"
	 viewBox="-179 -120 1000 800" style="enable-background:new -179 -120 1000 800;" xml:space="preserve">
<style type="text/css">
	.st0{fill:#FFFFFF;}
	.st1{fill:#8860D0;}
	.st2{font-family:'Arial-BoldMT';}
	.st3{font-size:36px;}
	.st4{opacity:0.7;fill:#8860D0;enable-background:new    ;}
	.st5{opacity:0.4;fill:#5B42F3;enable-background:new    ;}
	.st6{opacity:0.3;fill:#5B42F3;enable-background:new    ;}
	.st7{opacity:0.9;fill:#8860D0;enable-background:new    ;}
	.st8{font-size:24px;}
	.st9{font-family:'ArialMT';}
	.st10{font-size:20px;}
	.st11{opacity:0.7;fill:#FFFFFF;enable-background:new    ;}
	.st12{font-size:16px;}
	.st13{opacity:0.9;fill:#6A11CB;enable-background:new    ;}
</style>
<rect x="-79" y="-230" class="st0" width="800" height="1000"/>
<path class="st1" d="M-79-220h800v200C454.3,13.3,187.7,13.3-79-20V-220z"/>
<text transform="matrix(1 0 0 1 197.0039 -140)" class="st0 st2" style="font-size:48px;">AIC LITEIN</text>
<text transform="matrix(1 0 0 1 46 -37)" class="st0 st2 st3">APRIL HOLIDAY PROGRAMS</text>
<circle class="st4" cx="71" cy="80" r="40"/>
<circle class="st4" cx="571" cy="80" r="40"/>
<circle class="st5" cx="121" cy="630" r="60"/>
<circle class="st6" cx="621" cy="580" r="80"/>
<path class="st7" d="M36,30h570c8.3,0,15,6.7,15,15v90c0,8.3-6.7,15-15,15H36c-8.3,0-15-6.7-15-15V45C21,36.7,27.7,30,36,30z"/>
<text transform="matrix(1 0 0 1 51 70)" class="st0 st2 st8">Holiday Bible Club (VBS)</text>
<text transform="matrix(1 0 0 1 51 105)" class="st0 st9 st10">April 7th - 11th, 2025</text>
<rect x="31" y="125" class="st0" width="30" height="5"/>
<circle class="st11" cx="571" cy="90" r="25"/>
<text transform="matrix(1 0 0 1 566.5508 98)" class="st1 st2 st12">1</text>
<path class="st7" d="M36,170h570c8.3,0,15,6.7,15,15v90c0,8.3-6.7,15-15,15H36c-8.3,0-15-6.7-15-15v-90C21,176.7,27.7,170,36,170z"
	/>
<text transform="matrix(1 0 0 1 51 210)" class="st0 st2 st8">Pastor&apos;s Welfare Sunday</text>
<text transform="matrix(1 0 0 1 51 245)" class="st0 st9 st10">April 13th, 2025</text>
<rect x="31" y="265" class="st0" width="30" height="5"/>
<circle class="st11" cx="571" cy="230" r="25"/>
<text transform="matrix(1 0 0 1 566.5508 238)" class="st1 st2 st12">2</text>
<path class="st7" d="M36,310h570c8.3,0,15,6.7,15,15v110c0,8.3-6.7,15-15,15H36c-8.3,0-15-6.7-15-15V325C21,316.7,27.7,310,36,310z"
	/>
<text transform="matrix(1 0 0 1 51 350)" class="st0 st2 st8">Women Conference</text>
<text transform="matrix(1 0 0 1 51 385)" class="st0 st9 st10">April 15th - 18th, 2025</text>
<text transform="matrix(1 0 0 1 51 425)" class="st0 st2 st8">Men Conference</text>
<rect x="31" y="445" class="st0" width="30" height="5"/>
<circle class="st11" cx="571" cy="380" r="25"/>
<text transform="matrix(1 0 0 1 566.5508 388)" class="st1 st2 st12">3</text>
<path class="st7" d="M46,460h570c8.3,0,15,6.7,15,15v90c0,8.3-6.7,15-15,15H46c-8.3,0-15-6.7-15-15v-90C31,466.7,37.7,460,46,460z"
	/>
<text transform="matrix(1 0 0 1 51 510)" class="st0 st2 st8">Youths &amp; Juniors Faith Conference</text>
<text transform="matrix(1 0 0 1 51 545)" class="st0 st9 st10">April 22nd - 26th, 2025</text>
<rect x="31" y="565" class="st0" width="30" height="5"/>
<circle class="st11" cx="571" cy="530" r="25"/>
<text transform="matrix(1 0 0 1 566.5508 538)" class="st1 st2 st12">4</text>
<rect x="-74" y="693" class="st13" width="800" height="150"/>
<text transform="matrix(1 0 0 1 190.8369 735)" class="st0 st2" style="font-size:28px;">JOIN US THIS APRIL</text>
<text transform="matrix(1 0 0 1 197.6064 785)" class="st0 st9 st10">Africa Inland Church - Litein</text>
<text transform="matrix(1 0 0 1 254.9766 750)" class="st0 st9" style="font-size:18px;">All are welcome!</text>
</svg>
